# xmcd
#
# Track frame offsets:
#	150
#	10875
#	22500
#	30182
#	45557
#	61757
#	76637
#	86349
#	98363
#	113471
#	124344
#	136756
#	150256
#	167248
#	178180
#	186855
#
# Disc length: 2657 seconds
#
# Revision: 1
# Processed by: cddbd v1.5.2PL0 Copyright (c) Steve Scherf et al.
# Submitted via: audiograbber 1.83.01
#
DISCID=a00a5f10
DTITLE=Doug Wilshire - Rhtyhm Bomb 5705
DYEAR=2010
DGENRE=Rockabilly
TTITLE0=Where The Rio The Rosa Flows
TTITLE1=Stop!
TTITLE2=Cruz Of You!
TTITLE3=She Mystifies Me
TTITLE4=Five Star Boogie
TTITLE5=It´s Unbelieveble
TTITLE6=Bossman
TTITLE7=El Puerco
TTITLE8=Maybe
TTITLE9=My Girl
TTITLE10=Jacks Curl
TTITLE11=Big Ol Bear
TTITLE12=Put This Old Boy Down
TTITLE13=Love Had Come To Me
TTITLE14=Cruz Of You ( accustic version)
TTITLE15=Why Don´t We Write A Song Together (with Rayburn Anthony)
EXTD=
EXTT0=
EXTT1=
EXTT2=
EXTT3=
EXTT4=
EXTT5=
EXTT6=
EXTT7=
EXTT8=
EXTT9=
EXTT10=
EXTT11=
EXTT12=
EXTT13=
EXTT14=
EXTT15=
PLAYORDER=
